<svg width="4154" height="2728" viewBox="0 0 4154 2728" fill="none" xmlns="http://www.w3.org/2000/svg">
<g clip-path="url(#clip0_356_590)">
<rect width="4154" height="2728" fill="white"/>
<path d="M-0.5 1291C105.333 1158.5 327.1 972.999 367.5 1291C418 1688.5 268.5 2253.5 442 1691.5C615.5 1129.5 355 543.5 657 1117.5C959 1691.5 794.5 2241 965 1640.5C1135.5 1040 929.5 499 1138.5 998C1347.5 1497 968 1937 1335.5 1587C1703 1237 2130.5 773.499 1733 1117.5C1335.5 1461.5 1386 2050.5 1691 1712.5C1996 1374.5 1769 902.5 2035 1177.5C2301 1452.5 1804.5 1772.5 2229 1587C2653.5 1401.5 2644 848 2599.5 1096.5C2555 1345 2838 1688 2955 1515C3072 1342 3000.5 812.5 3176.5 1144.5C3352.5 1476.5 3060 1736.5 3326 1608C3592 1479.5 3559 926.5 3696.5 1177.5C3834 1428.5 3792.5 1883 3971.5 1587C4150.5 1291 3714.5 678 4049 1096.5C4383.5 1515 4052 2044 4452.5 1530" stroke="#F3F3F3" stroke-width="2"/>
<path d="M-3.21191 1391.69C-3.21191 1394.06 32.7832 1581.16 41.7819 1477.61C50.7807 1374.05 65.7787 1262.82 86.7758 1367.27C107.773 1471.73 12.286 1556.58 218.258 1482.42C424.23 1408.27 6.28679 1299.9 218.258 1378.46C430.229 1457.03 289.248 1638.16 376.236 1489.77C463.224 1341.39 462.724 1275.07 525.716 1367.27C588.707 1459.48 663.197 1585 708.191 1489.77C753.185 1394.55 573.209 1238.89 758.684 1364.33C1018.65 1378.46 922.662 1267.56 1030.65 1372.58C1138.63 1477.61 1040.15 1597.57 1135.63 1482.42C1231.12 1367.27 1048.64 1208.11 1222.12 1355.51C1395.6 1502.92 1317.11 1625.01 1407.1 1496.14C1568.57 1489.77 1236.62 1217.33 1407.1 1355.51C1577.57 1493.69 1709.05 1563.93 1700.06 1485.85C1691.06 1407.78 1756.55 1292.63 1822.54 1389.24C1888.53 1485.85 1954.02 1548.33 1969.02 1468.79C1984.02 1389.24 2103.5 1260.78 2097.5 1378.46C2091.5 1496.14 2509.44 1548.33 2303.47 1463.4C2097.5 1378.46 2671.44 1327.67 2491.95 1415.54C2312.45 1503.41 2740.41 1560.99 2662.42 1482.42C2584.43 1403.86 2933.89 1269.68 2856.4 1389.24C2778.91 1508.8 3134.36 1612.85 2981.88 1492.71C2829.4 1372.58 2958.38 1304.23 2934.39 1375.03C2910.39 1445.84 2790.91 1530.77 3011.88 1489.77C3232.85 1448.78 3376.83 1312.07 3328.83 1398.96C3280.84 1485.85 3475.31 1608.44 3436.32 1496.14C3397.32 1383.85 3564.8 1295.98 3540.8 1407.78C3516.81 1519.58 3579.8 1618.64 3579.8 1513.21C3579.8 1407.78 3714.28 1307.74 3708.28 1407.78C3702.28 1507.82 3773.77 1610.89 3791.77 1513.21C3809.77 1415.54 3986.24 1270.58 3929.25 1398.96C3872.26 1527.34 4409.69 1589.9 4129.22 1456.13" stroke="#F3F3F3" stroke-width="2"/>
<path d="M-46 1461C307.833 1625 1085.6 1902 1366 1698C1716.5 1443 2322.5 1116 2904 1263C3485.5 1410 3758.5 1767 4247 1560" stroke="#ECECEC" stroke-width="2"/>
</g>
<defs>
<clipPath id="clip0_356_590">
<rect width="4154" height="2728" fill="white"/>
</clipPath>
</defs>
</svg>
